<svg width="24" height="24" viewBox="0 0 24 24" fill="none" xmlns="http://www.w3.org/2000/svg">
<path d="M21.4286 0H2.57143C1.15179 0 0 1.15179 0 2.57143V21.4286C0 22.8482 1.15179 24 2.57143 24H21.4286C22.8482 24 24 22.8482 24 21.4286V2.57143C24 1.15179 22.8482 0 21.4286 0ZM8.57143 18C8.57143 18.4736 8.18786 18.8571 7.71429 18.8571H6C5.52643 18.8571 5.14286 18.4736 5.14286 18V11.1429C5.14286 10.6693 5.52643 10.2857 6 10.2857H7.71429C8.18786 10.2857 8.57143 10.6693 8.57143 11.1429V18ZM13.7143 18C13.7143 18.4736 13.3307 18.8571 12.8571 18.8571H11.1429C10.6693 18.8571 10.2857 18.4736 10.2857 18V6C10.2857 5.52643 10.6693 5.14286 11.1429 5.14286H12.8571C13.3307 5.14286 13.7143 5.52643 13.7143 6V18ZM18.8571 18C18.8571 18.4736 18.4736 18.8571 18 18.8571H16.2857C15.8121 18.8571 15.4286 18.4736 15.4286 18V14.5714C15.4286 14.0979 15.8121 13.7143 16.2857 13.7143H18C18.4736 13.7143 18.8571 14.0979 18.8571 14.5714V18Z" fill="#282828"/>
</svg>
