<svg width="24" height="24" viewBox="0 0 24 24" fill="none" xmlns="http://www.w3.org/2000/svg">
<path d="M8.64087 0H14.4014V5.76056H8.64087V0Z" fill="#282828"/>
<path d="M0 17.2817H5.76056V23.0423H0V17.2817Z" fill="#282828"/>
<path d="M0 8.64087H5.76056V14.4014H0V8.64087Z" fill="#282828"/>
<path d="M0 0H5.76056V5.76056H0V0Z" fill="#282828"/>
<path d="M23.8295 10.5035L22.1397 8.81369C21.9093 8.58326 21.5253 8.58326 21.2948 8.81369L20.0275 10.081L22.543 12.5965L23.8103 11.3291C24.0599 11.0987 24.0599 10.7339 23.8295 10.5035Z" fill="#282828"/>
<path d="M9.60095 20.5267V23.0422H12.1164L21.7173 13.4412L19.2019 10.9258L9.60095 20.5267Z" fill="#282828"/>
<path d="M14.4014 12.9997V8.64087H8.64087V14.4014H12.9997L14.4014 12.9997Z" fill="#282828"/>
<path d="M17.2817 0H23.0422V5.76056H17.2817V0Z" fill="#282828"/>
</svg>
