<svg width="24" height="24" viewBox="0 0 24 24" fill="none" xmlns="http://www.w3.org/2000/svg">
<path fill-rule="evenodd" clip-rule="evenodd" d="M9.6 14.4C10.2627 14.4 10.8 14.9373 10.8 15.6V22.8C10.8 23.4627 10.2627 24 9.6 24H1.2C0.537258 24 0 23.4627 0 22.8V15.6C0 14.9373 0.537258 14.4 1.2 14.4H9.6ZM22.8 8.4C23.4627 8.4 24 8.93726 24 9.6V22.8C24 23.4627 23.4627 24 22.8 24H14.4C13.7373 24 13.2 23.4627 13.2 22.8V9.6C13.2 8.93726 13.7373 8.4 14.4 8.4H22.8ZM9.6 0C10.2627 0 10.8 0.537258 10.8 1.2V10.8C10.8 11.4627 10.2627 12 9.6 12H1.2C0.537258 12 0 11.4627 0 10.8V1.2C0 0.537258 0.537258 0 1.2 0H9.6ZM22.8 0C23.4627 0 24 0.537258 24 1.2V4.8C24 5.46274 23.4627 6 22.8 6H14.4C13.7373 6 13.2 5.46274 13.2 4.8V1.2C13.2 0.537258 13.7373 0 14.4 0H22.8Z" fill="#0030A5"/>
</svg>
