<svg width="46" height="45" viewBox="0 0 46 45" fill="none" xmlns="http://www.w3.org/2000/svg">
<path d="M45.3333 22.5C45.3333 10.1025 35.2308 0 22.8333 0C10.4358 0 0.333313 10.1025 0.333313 22.5C0.333313 29.025 3.14581 34.8975 7.60081 39.015C7.60081 39.0375 7.60081 39.0375 7.57831 39.06C7.80331 39.285 8.07331 39.465 8.29831 39.6675C8.43331 39.78 8.54581 39.8925 8.68081 39.9825C9.08581 40.32 9.53581 40.635 9.96331 40.95C10.1208 41.0625 10.2558 41.1525 10.4133 41.265C10.8408 41.5575 11.2908 41.8275 11.7633 42.075C11.9208 42.165 12.1008 42.2775 12.2583 42.3675C12.7083 42.615 13.1808 42.84 13.6758 43.0425C13.8558 43.1325 14.0358 43.2225 14.2158 43.29C14.7108 43.4925 15.2058 43.6725 15.7008 43.83C15.8808 43.8975 16.0608 43.965 16.2408 44.01C16.7808 44.1675 17.3208 44.3025 17.8608 44.4375C18.0183 44.4825 18.1758 44.5275 18.3558 44.55C18.9858 44.685 19.6158 44.775 20.2683 44.8425C20.3583 44.8425 20.4483 44.865 20.5383 44.8875C21.3033 44.955 22.0683 45 22.8333 45C23.5983 45 24.3633 44.955 25.1058 44.8875C25.1958 44.8875 25.2858 44.865 25.3758 44.8425C26.0283 44.775 26.6583 44.685 27.2883 44.55C27.4458 44.5275 27.6033 44.46 27.7833 44.4375C28.3233 44.3025 28.8858 44.19 29.4033 44.01C29.5833 43.9425 29.7633 43.875 29.9433 43.83C30.4383 43.65 30.9558 43.4925 31.4283 43.29C31.6083 43.2225 31.7883 43.1325 31.9683 43.0425C32.4408 42.84 32.9133 42.615 33.3858 42.3675C33.5658 42.2775 33.7233 42.165 33.8808 42.075C34.3308 41.805 34.7808 41.5575 35.2308 41.265C35.3883 41.175 35.5233 41.0625 35.6808 40.95C36.1308 40.635 36.5583 40.32 36.9633 39.9825C37.0983 39.87 37.2108 39.7575 37.3458 39.6675C37.5933 39.465 37.8408 39.2625 38.0658 39.06C38.0658 39.0375 38.0658 39.0375 38.0433 39.015C42.5208 34.8975 45.3333 29.025 45.3333 22.5ZM33.9483 33.6825C27.8508 29.5875 17.8608 29.5875 11.7183 33.6825C10.7283 34.335 9.91831 35.1 9.24331 35.9325C5.82331 32.4675 3.70831 27.72 3.70831 22.5C3.70831 11.9475 12.2808 3.375 22.8333 3.375C33.3858 3.375 41.9583 11.9475 41.9583 22.5C41.9583 27.72 39.8433 32.4675 36.4233 35.9325C35.7708 35.1 34.9383 34.335 33.9483 33.6825Z" fill="black"/>
<path d="M22.8334 11.0918C18.1759 11.0918 14.3959 14.8718 14.3959 19.5293C14.3959 24.0968 17.9734 27.8093 22.7209 27.9443H22.9234H23.0809H23.1259C27.6709 27.7868 31.2484 24.0968 31.2709 19.5293C31.2709 14.8718 27.4909 11.0918 22.8334 11.0918Z" fill="black"/>
</svg>
